<?xml version="1.0" encoding="UTF-8"?>
<svg width="22px" height="22px" viewBox="0 0 22 22" version="1.1" xmlns="http://www.w3.org/2000/svg" xmlns:xlink="http://www.w3.org/1999/xlink">
    <title>E10B4BAC-31DA-4D2A-A592-0260D75829BE@1x</title>
    <defs>
        <path d="M13.3527778,4.58333333 C14.0268333,4.58516667 14.5728611,5.13119444 14.575,5.80555556 L14.575,5.80555556 L14.575,16.1944444 C14.5976111,16.8461944 14.0876389,17.3931389 13.4358889,17.41575 C13.4184722,17.4163611 13.40075,17.4166667 13.3830278,17.4166667 L8.55555556,17.4166667 C7.88119444,17.4145278 7.33516667,16.8685 7.33333333,16.1944444 L7.33333333,16.1944444 L7.33333333,5.80555556 C7.33516667,5.13119444 7.88119444,4.58516667 8.55555556,4.58333333 L8.55555556,4.58333333 Z M13.3527778,5.13333333 L8.55555556,5.13333333 C8.18552778,5.13669444 7.88669444,5.43552778 7.88302778,5.80555556 L7.88302778,5.80555556 L7.88302778,16.1944444 C7.88669444,16.5641667 8.18552778,16.863 8.55555556,16.8663611 L8.55555556,16.8663611 L9.01633333,16.8663611 L9.01633333,14.5523889 C9.01633333,14.3479722 9.18194444,14.1823611 9.38636111,14.1823611 C9.59047222,14.1823611 9.75608333,14.3479722 9.75608333,14.5523889 L9.75608333,14.5523889 L9.75608333,16.8663611 L10.6360833,16.8663611 L10.6360833,13.1960278 C10.6360833,12.9916111 10.8016944,12.826 11.0061111,12.826 C11.2102222,12.826 11.3758333,12.9916111 11.3758333,13.1960278 L11.3758333,13.1960278 L11.3758333,16.8663611 L12.2558333,16.8663611 L12.2558333,11.8396667 C12.2558333,11.63525 12.4214444,11.4696389 12.6255556,11.4696389 C12.8299722,11.4696389 12.9955833,11.63525 12.9955833,11.8396667 L12.9955833,11.8396667 L12.9955833,16.8663611 L13.3527778,16.8663611 C13.7225,16.863 14.0213333,16.5641667 14.025,16.1944444 L14.025,16.1944444 L14.025,5.80555556 C14.0213333,5.43552778 13.7225,5.13669444 13.3527778,5.13333333 L13.3527778,5.13333333 Z M11.7383139,7.60992222 L12.786675,7.66858889 C12.9128694,7.67561667 13.0097306,7.78378333 13.0027028,7.91028333 L13.0027028,7.91028333 L12.9440361,8.95864444 C12.9370083,9.08086667 12.8358694,9.17497778 12.7154806,9.17497778 L12.7154806,9.17497778 L12.7023417,9.17467222 C12.5761472,9.16764444 12.4789806,9.05947778 12.4863139,8.93297778 L12.4863139,8.93297778 L12.5138139,8.43736667 L9.16920278,11.4269222 C9.12550833,11.4660333 9.07081389,11.4852833 9.016425,11.4852833 C8.95348056,11.4852833 8.89084167,11.4596167 8.84561944,11.4088944 C8.76098056,11.3144778 8.76923056,11.1696444 8.86364722,11.0853111 L8.86364722,11.0853111 L12.2085639,8.09514444 L11.7126472,8.06764444 C11.5864528,8.06031111 11.4895917,7.95214444 11.4966194,7.82595 C11.5039528,7.69914444 11.6121194,7.60442222 11.7383139,7.60992222 L11.7383139,7.60992222 Z M11.88605,5.86651389 C12.0379111,5.86681944 12.16105,5.98995833 12.160745,6.14181944 C12.160745,6.293375 12.0376056,6.41651389 11.88605,6.41651389 L11.88605,6.41651389 L10.1443833,6.41651389 C9.99252222,6.41651389 9.86938333,6.29306944 9.86968832,6.14120833 C9.86968832,5.98965278 9.99252222,5.86681944 10.1443833,5.86651389 L10.1443833,5.86651389 Z" id="path-1"></path>
    </defs>
    <g id="🟢-Batch-2---Updates" stroke="none" stroke-width="1" fill="none" fill-rule="evenodd">
        <g id="Assets" transform="translate(-137.000000, -396.000000)">
            <g id="SMALL/Free-returns-Copy-2" transform="translate(137.000000, 396.000000)">
                <g id="BACKGROUNDS-/-BLUE-FILLED-CIRCLE" fill="#00549A">
                    <path d="M11.0001531,21.9996937 C4.92489315,21.9996937 0,17.0751068 0,10.9998469 C0,4.92489315 4.92489315,0 11.0001531,0 C17.0751068,0 22,4.92489315 22,10.9998469 C22,17.0751068 17.0751068,21.9996937 11.0001531,21.9996937 Z" id="CIRCLE-BACKGROUND-ICON"></path>
                </g>
                <mask id="mask-2" fill="white">
                    <use xlink:href="#path-1"></use>
                </mask>
                <use id="Fill-1" fill="#FFFFFF" xlink:href="#path-1"></use>
                <g id="Tint-/-White" mask="url(#mask-2)" fill="#FFFFFF">
                    <g transform="translate(-7.638889, 0.000000)">
                        <rect x="0" y="0" width="22" height="22"></rect>
                    </g>
                </g>
            </g>
        </g>
    </g>
</svg>