<?xml version="1.0" encoding="UTF-8"?>
<svg width="16px" height="16px" viewBox="0 0 16 16" version="1.1" xmlns="http://www.w3.org/2000/svg" xmlns:xlink="http://www.w3.org/1999/xlink">
    <title>0D5E0CD2-A613-4069-8AFE-DD20D2F16020@1x</title>
    <defs>
        <path d="M13.6564295,13.6564295 C10.5328942,16.7811902 5.46588037,16.7811902 2.3435705,13.6564295 C-0.781190166,10.5316688 -0.781190166,5.46588037 2.3435705,2.3435705 C5.46588037,-0.781190166 10.5328942,-0.781190166 13.6564295,2.3435705 C16.7811902,5.46588037 16.7811902,10.5316688 13.6564295,13.6564295" id="path-1"></path>
        <path d="M5.53033009,7.95166991 L4.46966991,9.01233009 L6.26466991,10.8073301 C6.55756313,11.1002233 7.03243687,11.1002233 7.32533009,10.8073301 L11.6023301,6.53033009 L10.5416699,5.46966991 L6.795,9.21633983 L5.53033009,7.95166991 Z" id="path-3"></path>
    </defs>
    <g id="🟢-Batch-2---Updates" stroke="none" stroke-width="1" fill="none" fill-rule="evenodd">
        <g id="Assets" transform="translate(-281.000000, -236.000000)">
            <g id="TINY-/-checkmark-Copy-2" transform="translate(281.000000, 236.000000)">
                <mask id="mask-2" fill="white">
                    <use xlink:href="#path-1"></use>
                </mask>
                <use id="Fill-1" fill="#378E42" xlink:href="#path-1"></use>
                <g id="Tint-/-Green" mask="url(#mask-2)" fill="#339043">
                    <rect id="Tint-/-White" x="0" y="0" width="16" height="16"></rect>
                </g>
                <mask id="mask-4" fill="white">
                    <use xlink:href="#path-3"></use>
                </mask>
                <use id="Stroke-3" fill="#FFFFFF" fill-rule="nonzero" xlink:href="#path-3"></use>
                <g id="Tint-/-White" mask="url(#mask-4)" fill="#FFFFFF">
                    <g transform="translate(1.000000, 1.000000)">
                        <rect x="0" y="0" width="72" height="72"></rect>
                    </g>
                </g>
            </g>
        </g>
    </g>
</svg>