<?xml version="1.0" encoding="UTF-8"?>
<svg width="16px" height="16px" viewBox="0 0 16 16" version="1.1" xmlns="http://www.w3.org/2000/svg" xmlns:xlink="http://www.w3.org/1999/xlink">
    <title>NOT_SET_UP</title>
    <g id="🟢-Assets" stroke="none" stroke-width="1" fill="none" fill-rule="evenodd">
        <g id="Assets" transform="translate(-667.000000, -236.000000)">
            <g id="NOT_SET_UP" transform="translate(667.000000, 236.000000)">
                <path d="M16,8 C16,12.418 12.418,16 8,16 C3.582,16 0,12.418 0,8 C0,3.582 3.582,0 8,0 C12.418,0 16,3.582 16,8" id="Fill-1" fill="#231F20"></path>
                <path d="M11.9189,4.6911 L11.9189,4.6911 L11.9189,4.6911 Z" id="Fill-3" fill="#FEFEFE"></path>
                <path d="M11.7288,4.9784 L10.6398,6.2184 L9.7318,6.0684 L9.5208,5.1724 L10.6098,3.9324 C9.8558,3.6434 8.9698,3.8184 8.3848,4.4444 C7.8678,4.9984 7.7358,5.7594 7.9438,6.4344 L4.9348,9.6164 C4.6008,9.9744 4.6198,10.5364 4.9778,10.8704 C5.3368,11.2054 5.8978,11.1854 6.2328,10.8274 L9.1668,7.7234 C9.2248,7.7474 9.2778,7.7794 9.3378,7.7984 C10.0468,7.9914 10.8338,7.8064 11.3698,7.2324 C11.9548,6.6064 12.0688,5.7104 11.7288,4.9784" id="Fill-5" fill="#FEFEFE"></path>
            </g>
        </g>
    </g>
</svg>