<svg version="1.1" xmlns="http://www.w3.org/2000/svg" width="40px" height="40px" viewBox="0 0 1150 1150">
<title></title>
<path d="M512.624 1125.495c284.375 0 513.871-229.496 513.871-512.624s-229.496-513.871-513.871-513.871c-283.128 0-513.871 229.496-513.871 513.871 1.247 283.128 230.743 512.624 513.871 512.624zM512.624 148.89c255.688 0 463.981 208.292 463.981 463.981s-208.292 463.981-463.981 463.981-463.981-208.292-463.981-463.981 208.292-463.981 463.981-463.981zM481.442 338.474h62.363v374.178h-62.363v-374.178zM560.019 857.334c0 26.176-21.22 47.396-47.396 47.396s-47.396-21.22-47.396-47.396c0-26.176 21.22-47.396 47.396-47.396s47.396 21.22 47.396 47.396z"></path>
</svg>
