<?xml version="1.0" encoding="UTF-8"?>
<svg width="23px" height="23px" viewBox="0 0 23 23" version="1.1" xmlns="http://www.w3.org/2000/svg" xmlns:xlink="http://www.w3.org/1999/xlink">
    <title>01209A94-20F0-4318-8503-F2085A27AA8C@1x</title>
    <defs>
        <path d="M11.5,6.0338 C12.0522847,6.0338 12.5,6.48151525 12.5,7.0338 L12.5,10.5 L15.9652,10.5 C16.4780358,10.5 16.9007072,10.8860402 16.9584723,11.3833789 L16.9652,11.5 C16.9652,12.0522847 16.5174847,12.5 15.9652,12.5 L12.5,12.5 L12.5,15.9658 C12.5,16.4786358 12.1139598,16.9013072 11.6166211,16.9590723 L11.5,16.9658 C10.9477153,16.9658 10.5,16.5180847 10.5,15.9658 L10.5,12.5 L7.0342,12.5 C6.52136416,12.5 6.09869284,12.1139598 6.04092773,11.6166211 L6.0342,11.5 C6.0342,10.9477153 6.48191525,10.5 7.0342,10.5 L10.5,10.5 L10.5,7.0338 C10.5,6.52096416 10.8860402,6.09829284 11.3833789,6.04052773 Z M21,11.5 C21,6.25328475 16.7467153,2 11.5,2 C6.25264485,2 2,6.25292463 2,11.5 C2,16.7470754 6.25264485,21 11.5,21 C16.7467153,21 21,16.7467153 21,11.5 Z M23,11.5 C23,17.8512847 17.8512847,23 11.5,23 C5.14804589,23 0,17.8516154 0,11.5 C0,5.14838458 5.14804589,0 11.5,0 C17.8512847,0 23,5.14871525 23,11.5 Z" id="path-1"></path>
    </defs>
    <g id="🟢-Batch-2---Updates" stroke="none" stroke-width="1" fill="none" fill-rule="evenodd">
        <g id="Assets" transform="translate(-212.000000, -396.000000)">
            <g id="TINY-/-collapse-Copy" transform="translate(212.000000, 396.000000)">
                <mask id="mask-2" fill="white">
                    <use xlink:href="#path-1"></use>
                </mask>
                <use id="Stroke-5" fill="#005499" fill-rule="nonzero" xlink:href="#path-1"></use>
                <g id="Tint-/-Blue" mask="url(#mask-2)" fill="#00549A">
                    <g transform="translate(-2.000000, -1.000000)" id="Tint-/-White">
                        <rect x="0" y="0" width="26" height="26"></rect>
                    </g>
                </g>
            </g>
        </g>
    </g>
</svg>