<?xml version="1.0" encoding="UTF-8"?>
<svg width="22px" height="22px" viewBox="0 0 22 22" version="1.1" xmlns="http://www.w3.org/2000/svg" xmlns:xlink="http://www.w3.org/1999/xlink">
    <title>7DE76A7C-CE1C-4CBC-A2D2-D08EB4144028@1x</title>
    <defs>
        <path d="M8.43713568,6.36008472 C8.5038233,6.46765574 8.47068075,6.60892028 8.36310973,6.6756079 C6.95521275,7.54842005 6.08177778,9.08179784 6.08177778,10.7677778 C6.08177778,13.1904847 7.88056622,15.2124907 10.2382656,15.5328707 L9.40102778,14.5413889 L9.64638889,14.3336111 L10.8903056,15.8063889 L10.7336132,15.9203669 C10.7039212,15.9652936 10.6589436,15.9988712 10.6066237,16.0141792 L9.33197222,16.94 L9.14283333,16.6802778 L10.1075467,15.9772069 C7.55865256,15.5966718 5.62344444,13.3979224 5.62344444,10.7677778 C5.62344444,8.92143557 6.58032323,7.24156617 8.1216125,6.28605876 C8.22918352,6.21937114 8.37044806,6.25251369 8.43713568,6.36008472 Z M12.4480278,4.59861111 L12.6371667,4.85833333 L11.6724281,5.55835081 C14.2211736,5.93890246 16.1565556,8.13773854 16.1565556,10.7677778 C16.1565556,12.5768437 15.2369111,14.2298337 13.7455823,15.1951588 C13.6393331,15.263933 13.4974487,15.2335536 13.4286745,15.1273045 C13.3599003,15.0210554 13.3902797,14.8791709 13.4965289,14.8103967 C14.8587221,13.92866 15.6982222,12.4197234 15.6982222,10.7677778 C15.6982222,8.34518098 13.8992598,6.32308075 11.5417105,6.00268622 L12.3792778,6.99416667 L12.1336111,7.20194444 L10.89,5.73222222 L11.0433703,5.61987603 C11.0741076,5.57080844 11.1227813,5.53454846 11.1795599,5.51966148 L12.4480278,4.59861111 Z" id="path-1"></path>
    </defs>
    <g id="🟢-Batch-2---Updates" stroke="none" stroke-width="1" fill="none" fill-rule="evenodd">
        <g id="Assets" transform="translate(-100.000000, -396.000000)">
            <g id="SMALL/Free-returns-Copy" transform="translate(100.000000, 396.000000)">
                <g id="BACKGROUNDS-/-BLUE-FILLED-CIRCLE" fill="#00549A">
                    <path d="M11.0001531,21.9996937 C4.92489315,21.9996937 0,17.0751068 0,10.9998469 C0,4.92489315 4.92489315,0 11.0001531,0 C17.0751068,0 22,4.92489315 22,10.9998469 C22,17.0751068 17.0751068,21.9996937 11.0001531,21.9996937 Z" id="CIRCLE-BACKGROUND-ICON"></path>
                </g>
                <mask id="mask-2" fill="white">
                    <use xlink:href="#path-1"></use>
                </mask>
                <use id="Stroke-370" fill="#FFFFFE" fill-rule="nonzero" xlink:href="#path-1"></use>
                <g id="Tint-/-White" mask="url(#mask-2)" fill="#FFFFFF">
                    <rect x="0" y="0" width="22" height="22"></rect>
                </g>
            </g>
        </g>
    </g>
</svg>