<?xml version="1.0" encoding="UTF-8"?>
<svg width="22px" height="22px" viewBox="0 0 22 22" version="1.1" xmlns="http://www.w3.org/2000/svg" xmlns:xlink="http://www.w3.org/1999/xlink">
    <title>BBCCE04F-EC60-46C6-9AF7-35B106BC533D@1x</title>
    <defs>
        <path d="M13.3989056,4.88888889 C14.027271,4.88888889 14.5509089,5.41252677 14.5509089,6.04089223 L14.5509089,6.04089223 L14.5509089,15.9551028 C14.5509089,16.6180283 14.027271,17.1416662 13.3989056,17.1416662 L13.3989056,17.1416662 L8.79089223,17.1416662 C8.16252677,17.1416662 7.63888889,16.6180283 7.63888889,15.990012 L7.63888889,15.990012 L7.63888889,6.04089223 C7.63888889,5.41252677 8.16252677,4.88888889 8.79089223,4.88888889 L8.79089223,4.88888889 Z M13.3989056,5.41252677 L8.79089223,5.41252677 C8.44180031,5.41252677 8.16252677,5.69180031 8.16252677,6.04089223 L8.16252677,6.04089223 L8.16252677,15.9551028 C8.16252677,16.3041947 8.44180031,16.5834682 8.79089223,16.5834682 L8.79089223,16.5834682 L13.3989056,16.5834682 C13.7479975,16.5834682 14.027271,16.3041947 14.027271,15.9551028 L14.027271,15.9551028 L14.027271,6.04089223 C14.027271,5.69180031 13.7479975,5.41252677 13.3989056,5.41252677 L13.3989056,5.41252677 Z M11.0949687,9.6015949 C11.2695147,9.6015949 11.3742423,9.70632248 11.3742423,9.88086844 L11.3742423,9.88086844 L11.3742423,11.0328718 L12.5262456,11.0328718 C12.6658824,11.0328718 12.8055191,11.1375994 12.8055191,11.3121453 C12.8055191,11.4866913 12.6658824,11.5914188 12.5262456,11.5914188 L12.5262456,11.5914188 L11.3742423,11.5914188 L11.3742423,12.7434222 C11.3742423,12.9179681 11.2346055,13.0226957 11.0949687,13.0226957 C10.955332,13.0226957 10.8156952,12.9179681 10.8156952,12.7434222 L10.8156952,12.7434222 L10.8156952,11.5914188 L9.66369185,11.5914188 C9.52405508,11.5914188 9.38441831,11.4866913 9.38441831,11.3121453 C9.38441831,11.1375994 9.48914589,11.0328718 9.66369185,11.0328718 L9.66369185,11.0328718 L10.8156952,11.0328718 L10.8156952,9.88086844 C10.8156952,9.74123167 10.9204228,9.6015949 11.0949687,9.6015949 Z M12.0026775,6.11064079 C12.1423143,6.11064079 12.2819511,6.21536837 12.2819511,6.38991433 C12.2819511,6.56446029 12.1074051,6.63427867 11.9677683,6.63427867 L11.9677683,6.63427867 L10.3270363,6.63427867 C10.1873995,6.63427867 10.082672,6.5295511 10.082672,6.38991433 C10.082672,6.25027756 10.1873995,6.11064079 10.3619455,6.11064079 L10.3619455,6.11064079 Z" id="path-1"></path>
    </defs>
    <g id="🟢-Batch-2---Updates" stroke="none" stroke-width="1" fill="none" fill-rule="evenodd">
        <g id="Assets" transform="translate(-63.000000, -396.000000)">
            <g id="SMALL/Free-returns" transform="translate(63.000000, 396.000000)">
                <g id="BACKGROUNDS-/-BLUE-FILLED-CIRCLE" fill="#00549A">
                    <path d="M11.0001531,21.9996937 C4.92489315,21.9996937 0,17.0751068 0,10.9998469 C0,4.92489315 4.92489315,0 11.0001531,0 C17.0751068,0 22,4.92489315 22,10.9998469 C22,17.0751068 17.0751068,21.9996937 11.0001531,21.9996937 Z" id="CIRCLE-BACKGROUND-ICON"></path>
                </g>
                <mask id="mask-2" fill="white">
                    <use xlink:href="#path-1"></use>
                </mask>
                <use id="Fill-1" fill="#FFFFFF" xlink:href="#path-1"></use>
                <g id="Tint-/-White" mask="url(#mask-2)" fill="#FFFFFF">
                    <rect x="0" y="0" width="22" height="22"></rect>
                </g>
            </g>
        </g>
    </g>
</svg>